<svg version="1.1" id="Calque_1" xmlns="http://www.w3.org/2000/svg" x="0" y="0" viewBox="406.4 271.2 28.7 28.7" xml:space="preserve"><path d="M420.4 292.2l.2.2h.2l.2-.2s3.8-4.2 4.2-7.8v-.6c0-2.5-2.1-4.6-4.6-4.6s-4.6 2.1-4.6 4.6v.6c.6 3.6 4.4 7.8 4.4 7.8zm.3-11.3c1.6 0 3 1.3 3 3 0 1.6-1.3 3-3 3-1.6 0-3-1.3-3-3s1.4-3 3-3z"/><path d="M420.7 273.5c6.7 0 12.1 5.4 12.1 12.1s-5.4 12.1-12.1 12.1c-6.7 0-12.1-5.4-12.1-12.1s5.5-12.1 12.1-12.1m0-.4c-6.9 0-12.5 5.6-12.5 12.5s5.6 12.5 12.5 12.5 12.5-5.6 12.5-12.5-5.6-12.5-12.5-12.5z"/><path d="M420.7 272.2c7.4 0 13.4 6 13.4 13.4s-6 13.4-13.4 13.4-13.4-6-13.4-13.4c.1-7.4 6.1-13.4 13.4-13.4m0-.9c-7.8 0-14.3 6.4-14.3 14.3s6.4 14.3 14.3 14.3c7.8 0 14.3-6.4 14.3-14.3s-6.4-14.3-14.3-14.3z"/></svg>